ffmpeg version 2021-09-22-git-447cf53774-essentials_build-www.gyan.dev Copyright (c) 2000-2021 the FFmpeg developers
  built with gcc 10.3.0 (Rev5, Built by MSYS2 project)
  configuration: --enable-gpl --enable-version3 --enable-static --disable-w32threads --disable-autodetect --enable-fontconfig --enable-iconv --enable-gnutls --enable-libxml2 --enable-gmp --enable-lzma --enable-zlib --enable-libsrt --enable-libssh --enable-libzmq --enable-avisynth --enable-sdl2 --enable-libwebp --enable-libx264 --enable-libx265 --enable-libxvid --enable-libaom --enable-libopenjpeg --enable-libvpx --enable-libass --enable-libfreetype --enable-libfribidi --enable-libvidstab --enable-libvmaf --enable-libzimg --enable-amf --enable-cuda-llvm --enable-cuvid --enable-ffnvcodec --enable-nvdec --enable-nvenc --enable-d3d11va --enable-dxva2 --enable-libmfx --enable-libgme --enable-libopenmpt --enable-libopencore-amrwb --enable-libmp3lame --enable-libtheora --enable-libvo-amrwbenc --enable-libgsm --enable-libopencore-amrnb --enable-libopus --enable-libspeex --enable-libvorbis --enable-librubberband
  libavutil      57.  6.100 / 57.  6.100
  libavcodec     59.  9.100 / 59.  9.100
  libavformat    59.  5.100 / 59.  5.100
  libavdevice    59.  0.101 / 59.  0.101
  libavfilter     8.  9.100 /  8.  9.100
  libswscale      6.  1.100 /  6.  1.100
  libswresample   4.  0.100 /  4.  0.100
  libpostproc    56.  0.100 / 56.  0.100
Splitting the commandline.
Reading option '-v' ... matched as option 'v' (set logging level) with argument 'debug'.
Reading option '-nostdin' ... matched as option 'stdin' (enable or disable interaction on standard input) with argument 0.
Reading option '-progress' ... matched as option 'progress' (write program-readable progress information) with argument 'C:/Users/USER/AppData/Local/Temp/KritaFFmpegProgress.eozsQN'.
Reading option '-r' ... matched as option 'r' (set frame rate (Hz value, fraction or abbreviation)) with argument '8'.
Reading option '-start_number' ... matched as AVOption 'start_number' with argument '0'.
Reading option '-i' ... matched as input url with argument 'C:/Users/USER/Desktop/Dibujines/Game Jam Shit/Sprites/Walk/frame%04d.png'.
Reading option '-vf' ... matched as option 'vf' (set video filters) with argument 'palettegen'.
Reading option '-y' ... matched as option 'y' (overwrite output files) with argument '1'.
Reading option 'C:/Users/USER/Desktop/Dibujines/Game Jam Shit/Sprites/Walk/palette.png' ... matched as output url.
Finished splitting the commandline.
Parsing a group of options: global .
Applying option v (set logging level) with argument debug.
Applying option nostdin (enable or disable interaction on standard input) with argument 0.
Applying option progress (write program-readable progress information) with argument C:/Users/USER/AppData/Local/Temp/KritaFFmpegProgress.eozsQN.
[file @ 0000022c2460d5c0] Setting default whitelist 'file,crypto,data'
Applying option y (overwrite output files) with argument 1.
Successfully parsed a group of options.
Parsing a group of options: input url C:/Users/USER/Desktop/Dibujines/Game Jam Shit/Sprites/Walk/frame%04d.png.
Applying option r (set frame rate (Hz value, fraction or abbreviation)) with argument 8.
Successfully parsed a group of options.
Opening an input file: C:/Users/USER/Desktop/Dibujines/Game Jam Shit/Sprites/Walk/frame%04d.png.
[image2 @ 0000022c2464da80] Opening 'C:/Users/USER/Desktop/Dibujines/Game Jam Shit/Sprites/Walk/frame0000.png' for reading
[file @ 0000022c24650c80] Setting default whitelist 'file,crypto,data'
[AVIOContext @ 0000022c24658e40] Statistics: 3005 bytes read, 0 seeks
[image2 @ 0000022c2464da80] Opening 'C:/Users/USER/Desktop/Dibujines/Game Jam Shit/Sprites/Walk/frame0001.png' for reading
[file @ 0000022c24650d40] Setting default whitelist 'file,crypto,data'
[AVIOContext @ 0000022c24650ec0] Statistics: 2657 bytes read, 0 seeks
[image2 @ 0000022c2464da80] Opening 'C:/Users/USER/Desktop/Dibujines/Game Jam Shit/Sprites/Walk/frame0002.png' for reading
[file @ 0000022c24650e00] Setting default whitelist 'file,crypto,data'
[AVIOContext @ 0000022c24651b80] Statistics: 2838 bytes read, 0 seeks
[image2 @ 0000022c2464da80] Opening 'C:/Users/USER/Desktop/Dibujines/Game Jam Shit/Sprites/Walk/frame0003.png' for reading
[file @ 0000022c24650e00] Setting default whitelist 'file,crypto,data'
[AVIOContext @ 0000022c24652900] Statistics: 2657 bytes read, 0 seeks
Input #0, image2, from 'C:/Users/USER/Desktop/Dibujines/Game Jam Shit/Sprites/Walk/frame%04d.png':
  Duration: 00:00:00.16, start: 0.000000, bitrate: N/A
  Stream #0:0, 4, 1/25: Video: png, 1 reference frame, rgba(pc), 240x135 [SAR 11811:11811 DAR 16:9], 0/1, 25 fps, 25 tbr, 25 tbn
Successfully opened the file.
Parsing a group of options: output url C:/Users/USER/Desktop/Dibujines/Game Jam Shit/Sprites/Walk/palette.png.
Applying option vf (set video filters) with argument palettegen.
Successfully parsed a group of options.
Opening an output file: C:/Users/USER/Desktop/Dibujines/Game Jam Shit/Sprites/Walk/palette.png.
Successfully opened the file.
detected 8 logical cores
Stream mapping:
  Stream #0:0 -> #0:0 (png (native) -> png (native))
cur_dts is invalid st:0 (0) [init:0 i_done:0 finish:0] (this is harmless if it occurs once at the start per stream)
    Last message repeated 4 times
[graph 0 input from stream 0:0 @ 0000022c247b3040] Setting 'video_size' to value '240x135'
[graph 0 input from stream 0:0 @ 0000022c247b3040] Setting 'pix_fmt' to value '26'
[graph 0 input from stream 0:0 @ 0000022c247b3040] Setting 'time_base' to value '1/8'
[graph 0 input from stream 0:0 @ 0000022c247b3040] Setting 'pixel_aspect' to value '11811/11811'
[graph 0 input from stream 0:0 @ 0000022c247b3040] Setting 'frame_rate' to value '8/1'
[graph 0 input from stream 0:0 @ 0000022c247b3040] w:240 h:135 pixfmt:rgba tb:1/8 fr:8/1 sar:11811/11811
[format @ 0000022c247b32c0] Setting 'pix_fmts' to value 'rgb24|rgba|rgb48be|rgba64be|pal8|gray|ya8|gray16be|ya16be|monob'
[auto_scale_0 @ 0000022c247b3bc0] w:iw h:ih flags:'' interl:0
[Parsed_palettegen_0 @ 0000022c229275c0] auto-inserting filter 'auto_scale_0' between the filter 'graph 0 input from stream 0:0' and the filter 'Parsed_palettegen_0'
[auto_scale_1 @ 0000022c246a2500] w:iw h:ih flags:'' interl:0
[format @ 0000022c247b32c0] auto-inserting filter 'auto_scale_1' between the filter 'Parsed_palettegen_0' and the filter 'format'
[AVFilterGraph @ 0000022c246529c0] query_formats: 4 queried, 3 merged, 2 already done, 0 delayed
[auto_scale_1 @ 0000022c246a2500] picking rgba out of 10 ref:bgra alpha:1
[swscaler @ 0000022c247b4000] [swscaler @ 0000022c247c0fc0] Forcing full internal H chroma due to input having non subsampled chroma
[swscaler @ 0000022c247b4000] [swscaler @ 0000022c247cdf80] Forcing full internal H chroma due to input having non subsampled chroma
[swscaler @ 0000022c247b4000] [swscaler @ 0000022c247daf80] Forcing full internal H chroma due to input having non subsampled chroma
[swscaler @ 0000022c247b4000] [swscaler @ 0000022c247f3300] Forcing full internal H chroma due to input having non subsampled chroma
[swscaler @ 0000022c247b4000] [swscaler @ 0000022c24808fc0] Forcing full internal H chroma due to input having non subsampled chroma
[swscaler @ 0000022c247b4000] [swscaler @ 0000022c2481df80] Forcing full internal H chroma due to input having non subsampled chroma
[swscaler @ 0000022c247b4000] [swscaler @ 0000022c2483a100] Forcing full internal H chroma due to input having non subsampled chroma
[swscaler @ 0000022c247b4000] [swscaler @ 0000022c2484fd40] Forcing full internal H chroma due to input having non subsampled chroma
[swscaler @ 0000022c247b4000] [swscaler @ 0000022c24864fc0] Forcing full internal H chroma due to input having non subsampled chroma
[auto_scale_0 @ 0000022c247b3bc0] w:240 h:135 fmt:rgba sar:11811/11811 -> w:240 h:135 fmt:bgra sar:1/1 flags:0x0
[swscaler @ 0000022c248827c0] [swscaler @ 0000022c248927c0] Forcing full internal H chroma due to input having non subsampled chroma
[swscaler @ 0000022c248827c0] [swscaler @ 0000022c248a7800] Forcing full internal H chroma due to input having non subsampled chroma
[swscaler @ 0000022c248827c0] [swscaler @ 0000022c248ba800] Forcing full internal H chroma due to input having non subsampled chroma
[swscaler @ 0000022c248827c0] [swscaler @ 0000022c248d6100] Forcing full internal H chroma due to input having non subsampled chroma
[swscaler @ 0000022c248827c0] [swscaler @ 0000022c248e9100] Forcing full internal H chroma due to input having non subsampled chroma
[swscaler @ 0000022c248827c0] [swscaler @ 0000022c24900140] Forcing full internal H chroma due to input having non subsampled chroma
[swscaler @ 0000022c248827c0] [swscaler @ 0000022c24913180] Forcing full internal H chroma due to input having non subsampled chroma
[swscaler @ 0000022c248827c0] [swscaler @ 0000022c24926180] Forcing full internal H chroma due to input having non subsampled chroma
[swscaler @ 0000022c248827c0] [swscaler @ 0000022c249391c0] Forcing full internal H chroma due to input having non subsampled chroma
[auto_scale_1 @ 0000022c246a2500] w:16 h:16 fmt:bgra sar:1/1 -> w:16 h:16 fmt:rgba sar:1/1 flags:0x0
cur_dts is invalid st:0 (0) [init:0 i_done:0 finish:0] (this is harmless if it occurs once at the start per stream)
    Last message repeated 3 times
[Parsed_palettegen_0 @ 0000022c229275c0] 10(+1) colors generated out of 10 colors; ratio=1.000000
[Parsed_palettegen_0 @ 0000022c229275c0] Dupped color: FF000000
cur_dts is invalid st:0 (0) [init:0 i_done:0 finish:0] (this is harmless if it occurs once at the start per stream)
Output #0, image2, to 'C:/Users/USER/Desktop/Dibujines/Game Jam Shit/Sprites/Walk/palette.png':
  Metadata:
    encoder         : Lavf59.5.100
  Stream #0:0, 0, 1/8: Video: png, 1 reference frame, rgba(pc, gbr/unknown/unknown, progressive), 16x16 (0x0) [SAR 1:1 DAR 1:1], 0/1, q=2-31, 200 kb/s, 8 fps, 8 tbn
    Metadata:
      encoder         : Lavc59.9.100 png
Clipping frame in rate conversion by 0.000008
frame=    1 fps=0.0 q=0.0 size=N/A time=00:00:00.00 bitrate=N/A speed=   0x    cur_dts is invalid st:0 (0) [init:1 i_done:0 finish:0] (this is harmless if it occurs once at the start per stream)
[out_0_0 @ 0000022c24671a80] EOF on sink link out_0_0:default.
No more output streams to write to, finishing.
[image2 @ 0000022c24650640] Opening 'C:/Users/USER/Desktop/Dibujines/Game Jam Shit/Sprites/Walk/palette.png' for writing
[file @ 0000022c246a2b00] Setting default whitelist 'file,crypto,data'
[AVIOContext @ 0000022c2484ed80] Statistics: 0 seeks, 1 writeouts
frame=    1 fps=0.0 q=-0.0 Lsize=N/A time=00:00:00.12 bitrate=N/A speed= 8.7x    
[AVIOContext @ 0000022c2464d7c0] Statistics: 0 seeks, 2 writeouts
video:0kB audio:0kB subtitle:0kB other streams:0kB global headers:0kB muxing overhead: unknown
Input file #0 (C:/Users/USER/Desktop/Dibujines/Game Jam Shit/Sprites/Walk/frame%04d.png):
  Input stream #0:0 (video): 4 packets read (11157 bytes); 4 frames decoded; 
  Total: 4 packets (11157 bytes) demuxed
Output file #0 (C:/Users/USER/Desktop/Dibujines/Game Jam Shit/Sprites/Walk/palette.png):
  Output stream #0:0 (video): 1 frames encoded; 1 packets muxed (142 bytes); 
  Total: 1 packets (142 bytes) muxed
4 frames successfully decoded, 0 decoding errors
